<svg xmlns="http://www.w3.org/2000/svg" width="1200" height="800" viewBox="0 0 1200 800" role="img" aria-label="Soft matter research illustration">
  <defs>
    <linearGradient id="bg" x1="0" x2="1" y1="0" y2="1">
      <stop offset="0%" stop-color="#111827"/>
      <stop offset="100%" stop-color="#1f2937"/>
    </linearGradient>
    <radialGradient id="p" cx="50%" cy="50%" r="50%">
      <stop offset="0%" stop-color="#2dd4bf"/>
      <stop offset="100%" stop-color="#0f766e"/>
    </radialGradient>
  </defs>
  <rect width="1200" height="800" rx="32" fill="url(#bg)"/>
  <g stroke="#2dd4bf" stroke-width="4" opacity="0.45" fill="none">
    <path d="M180 420 C 310 210, 450 600, 590 390 S 860 240, 1020 500"/>
    <path d="M160 530 C 340 360, 440 670, 690 470 S 900 300, 1050 390"/>
    <path d="M250 270 C 410 170, 560 310, 700 250 S 910 120, 1030 270"/>
  </g>
  <g fill="url(#p)" opacity="0.95">
    <circle cx="190" cy="420" r="35"/>
    <circle cx="360" cy="310" r="52"/>
    <circle cx="525" cy="455" r="42"/>
    <circle cx="690" cy="330" r="64"/>
    <circle cx="845" cy="300" r="39"/>
    <circle cx="1010" cy="500" r="58"/>
    <circle cx="260" cy="610" r="46"/>
    <circle cx="780" cy="575" r="50"/>
  </g>
  <g fill="#f9fafb" opacity="0.12">
    <circle cx="950" cy="170" r="100"/>
    <circle cx="165" cy="170" r="68"/>
    <circle cx="1060" cy="650" r="75"/>
  </g>
  <text x="600" y="725" text-anchor="middle" font-family="Arial, Helvetica, sans-serif" font-size="42" fill="#f9fafb" font-weight="700">Soft matter / statistical physics</text>
</svg>
